<svg width="38" height="37" viewBox="0 0 38 37" fill="none" xmlns="http://www.w3.org/2000/svg">
<g id="github 2" clip-path="url(#clip0_225_97)">
<path id="Vector" d="M12.5645 28.585C12.5645 28.7289 12.3903 28.844 12.1707 28.844C11.9208 28.8655 11.7466 28.7505 11.7466 28.585C11.7466 28.4412 11.9208 28.3261 12.1404 28.3261C12.3676 28.3045 12.5645 28.4196 12.5645 28.585ZM10.2091 28.2613C10.1561 28.4052 10.3076 28.5706 10.5348 28.6138C10.7317 28.6857 10.9589 28.6138 11.0044 28.4699C11.0498 28.3261 10.9059 28.1606 10.6787 28.0959C10.4818 28.0455 10.2621 28.1175 10.2091 28.2613ZM13.5566 28.139C13.337 28.1894 13.1855 28.3261 13.2083 28.4915C13.231 28.6354 13.4279 28.7289 13.6551 28.6785C13.8747 28.6282 14.0262 28.4915 14.0035 28.3476C13.9808 28.211 13.7763 28.1175 13.5566 28.139ZM18.54 0.575439C8.03553 0.575439 0 8.14968 0 18.1264C0 26.1034 5.28633 32.9296 12.8372 35.3321C13.8066 35.4975 14.1474 34.9292 14.1474 34.4617C14.1474 34.0157 14.1247 31.5557 14.1247 30.0452C14.1247 30.0452 8.82318 31.1241 7.70987 27.9017C7.70987 27.9017 6.84648 25.8085 5.60442 25.269C5.60442 25.269 3.87008 24.1397 5.7256 24.1613C5.7256 24.1613 7.61141 24.3052 8.64898 26.0171C10.3076 28.7936 13.0871 27.9952 14.1701 27.5204C14.3443 26.3696 14.8366 25.5711 15.3819 25.0964C11.1483 24.6504 6.87678 24.0678 6.87678 17.1481C6.87678 15.1701 7.45236 14.1774 8.66413 12.9114C8.46722 12.4439 7.82347 10.5162 8.86104 8.0274C10.4439 7.55985 14.0868 9.96951 14.0868 9.96951C15.6015 9.5667 17.2298 9.3581 18.843 9.3581C20.4561 9.3581 22.0844 9.5667 23.5992 9.96951C23.5992 9.96951 27.242 7.55266 28.8249 8.0274C29.8625 10.5234 29.2187 12.4439 29.0218 12.9114C30.2336 14.1846 30.9758 15.1772 30.9758 17.1481C30.9758 24.0894 26.515 24.6432 22.2814 25.0964C22.9781 25.6647 23.5689 26.7436 23.5689 28.434C23.5689 30.858 23.5461 33.8575 23.5461 34.4473C23.5461 34.9149 23.8945 35.4831 24.8564 35.3177C32.4299 32.9296 37.5648 26.1034 37.5648 18.1264C37.5648 8.14968 29.0445 0.575439 18.54 0.575439ZM7.36148 25.3841C7.26303 25.4561 7.28575 25.6215 7.4145 25.7582C7.53567 25.8732 7.70987 25.9236 7.80832 25.8301C7.90678 25.7582 7.88406 25.5927 7.75531 25.4561C7.63413 25.341 7.45994 25.2906 7.36148 25.3841ZM6.54354 24.8015C6.49052 24.895 6.56626 25.0101 6.71773 25.082C6.83891 25.1539 6.99038 25.1324 7.04339 25.0317C7.09641 24.9382 7.02067 24.8231 6.8692 24.7511C6.71773 24.708 6.59655 24.7296 6.54354 24.8015ZM8.99737 27.3622C8.87619 27.4557 8.92163 27.6715 9.09582 27.8082C9.27001 27.9736 9.48965 27.9952 9.5881 27.8801C9.68656 27.7866 9.64112 27.5708 9.48965 27.4341C9.32303 27.2687 9.09582 27.2471 8.99737 27.3622ZM8.13398 26.3048C8.01281 26.3768 8.01281 26.5638 8.13398 26.7292C8.25516 26.8947 8.45965 26.9666 8.5581 26.8947C8.67928 26.8011 8.67928 26.6141 8.5581 26.4487C8.45207 26.2833 8.25516 26.2113 8.13398 26.3048Z" fill="white"/>
</g>
<defs>
<clipPath id="clip0_225_97">
<rect width="37.5648" height="36.8282" fill="white"/>
</clipPath>
</defs>
</svg>
