<svg width="38" height="38" viewBox="0 0 38 38" fill="none" xmlns="http://www.w3.org/2000/svg">
<g id="folder-plus-solid 1" clip-path="url(#clip0_225_95)">
<path id="Vector" d="M37.56 30.5175C37.56 33.1071 35.4546 35.2125 32.865 35.2125H4.695C2.10541 35.2125 0 33.1071 0 30.5175V7.04253C0 4.45295 2.10541 2.34753 4.695 2.34753H14.085C15.5595 2.34753 16.9534 3.04445 17.841 4.22553L19.2495 6.10353C19.6897 6.69774 20.3866 7.04253 21.1275 7.04253H32.865C35.4546 7.04253 37.56 9.14795 37.56 11.7375V30.5175ZM17.0194 27.5832C17.0194 28.5588 17.8043 29.3438 18.78 29.3438C19.7557 29.3438 20.5406 28.5588 20.5406 27.5832V22.8882H25.2356C26.2113 22.8882 26.9963 22.1032 26.9963 21.1275C26.9963 20.1519 26.2113 19.3669 25.2356 19.3669H20.5406V14.6719C20.5406 13.6962 19.7557 12.9113 18.78 12.9113C17.8043 12.9113 17.0194 13.6962 17.0194 14.6719V19.3669H12.3244C11.3487 19.3669 10.5638 20.1519 10.5638 21.1275C10.5638 22.1032 11.3487 22.8882 12.3244 22.8882H17.0194V27.5832Z" fill="white"/>
</g>
<defs>
<clipPath id="clip0_225_95">
<rect width="37.56" height="37.56" fill="white"/>
</clipPath>
</defs>
</svg>
